<mxfile host="65bd71144e">
    <diagram id="C5RBs43oDa-KdzZeNtuy" name="Page-1">
        <mxGraphModel dx="1111" dy="775" grid="1" gridSize="10" guides="1" tooltips="1" connect="1" arrows="1" fold="1" page="1" pageScale="1" pageWidth="827" pageHeight="1169" math="0" shadow="0">
            <root>
                <mxCell id="WIyWlLk6GJQsqaUBKTNV-0"/>
                <mxCell id="WIyWlLk6GJQsqaUBKTNV-1" parent="WIyWlLk6GJQsqaUBKTNV-0"/>
                <mxCell id="5-JzVDqVPUkqkS9P1yuQ-0" value="&lt;blockquote style=&quot;margin: 0px 0px 0px 40px ; border: none ; padding: 0px ; font-size: 16px ; line-height: 0.5&quot;&gt;&lt;pre&gt;&lt;br&gt;&lt;/pre&gt;&lt;pre&gt;&lt;br&gt;&lt;/pre&gt;&lt;pre&gt;ggplot(&lt;/pre&gt;&lt;pre&gt;&lt;span style=&quot;white-space: pre&quot;&gt;&#9;&lt;/span&gt;data = ___,&lt;/pre&gt;&lt;pre&gt;&lt;span style=&quot;white-space: pre&quot;&gt;&#9;&lt;/span&gt;mapping = aes(x = ___, y = ___,&lt;/pre&gt;&lt;pre&gt;&lt;span style=&quot;white-space: pre&quot;&gt;&#9;&lt;/span&gt;&lt;span style=&quot;white-space: pre&quot;&gt;&#9;&lt;/span&gt;      color = ___, fill = ___)&lt;br&gt;&lt;/pre&gt;&lt;pre&gt;)&lt;/pre&gt;&lt;/blockquote&gt;" style="shape=step;perimeter=stepPerimeter;whiteSpace=wrap;html=1;fixedSize=1;align=left;fillColor=#ff7a03;fontColor=#000000;strokeColor=#C73500;" parent="WIyWlLk6GJQsqaUBKTNV-1" vertex="1">
                    <mxGeometry x="80" y="150" width="520" height="170" as="geometry"/>
                </mxCell>
                <mxCell id="5-JzVDqVPUkqkS9P1yuQ-1" value="&lt;font color=&quot;#ffffff&quot;&gt;Create the ggplot object&lt;/font&gt;" style="text;html=1;strokeColor=none;fillColor=none;align=center;verticalAlign=middle;whiteSpace=wrap;rounded=0;fontSize=20;fontStyle=1" parent="WIyWlLk6GJQsqaUBKTNV-1" vertex="1">
                    <mxGeometry x="180" y="170" width="280" height="30" as="geometry"/>
                </mxCell>
                <mxCell id="5-JzVDqVPUkqkS9P1yuQ-2" value="&lt;font size=&quot;1&quot;&gt;&lt;b style=&quot;font-size: 100px&quot;&gt;+&lt;/b&gt;&lt;/font&gt;" style="text;html=1;strokeColor=none;fillColor=none;align=center;verticalAlign=middle;whiteSpace=wrap;rounded=0;fontSize=16;" parent="WIyWlLk6GJQsqaUBKTNV-1" vertex="1">
                    <mxGeometry x="630" y="225" width="60" height="30" as="geometry"/>
                </mxCell>
                <mxCell id="5-JzVDqVPUkqkS9P1yuQ-4" value="&lt;blockquote style=&quot;margin: 0px 0px 0px 40px ; border: none ; padding: 0px ; font-size: 16px ; line-height: 0.5&quot;&gt;&lt;pre&gt;&lt;ul style=&quot;line-height: 1.2&quot;&gt;&lt;li style=&quot;line-height: 1.1&quot;&gt;geom_bar(fill = ___) ## bar plot&lt;/li&gt;&lt;li style=&quot;line-height: 1.1&quot;&gt;geom_boxplot() ## box plot&lt;/li&gt;&lt;li style=&quot;line-height: 1.2&quot;&gt;geom_point() ## scatter plot&lt;/li&gt;&lt;/ul&gt;&lt;/pre&gt;&lt;/blockquote&gt;" style="shape=step;perimeter=stepPerimeter;whiteSpace=wrap;html=1;fixedSize=1;align=left;fillColor=#ff7a03;fontColor=#000000;strokeColor=#C73500;" parent="WIyWlLk6GJQsqaUBKTNV-1" vertex="1">
                    <mxGeometry x="80" y="360" width="480" height="160" as="geometry"/>
                </mxCell>
                <mxCell id="5-JzVDqVPUkqkS9P1yuQ-5" value="&lt;font size=&quot;1&quot;&gt;&lt;b style=&quot;font-size: 100px&quot;&gt;+&lt;/b&gt;&lt;/font&gt;" style="text;html=1;strokeColor=none;fillColor=none;align=center;verticalAlign=middle;whiteSpace=wrap;rounded=0;fontSize=16;" parent="WIyWlLk6GJQsqaUBKTNV-1" vertex="1">
                    <mxGeometry x="630" y="425" width="60" height="30" as="geometry"/>
                </mxCell>
                <mxCell id="5-JzVDqVPUkqkS9P1yuQ-6" value="&lt;font color=&quot;#ffffff&quot;&gt;Define the plot type&lt;/font&gt;" style="text;html=1;strokeColor=none;fillColor=none;align=center;verticalAlign=middle;whiteSpace=wrap;rounded=0;fontSize=20;fontStyle=1" parent="WIyWlLk6GJQsqaUBKTNV-1" vertex="1">
                    <mxGeometry x="180" y="370" width="280" height="30" as="geometry"/>
                </mxCell>
                <mxCell id="5-JzVDqVPUkqkS9P1yuQ-10" value="&lt;blockquote style=&quot;margin: 0px 0px 0px 40px ; border: none ; padding: 0px ; font-size: 16px ; line-height: 0.5&quot;&gt;&lt;pre&gt;&lt;ul style=&quot;line-height: 1.2&quot;&gt;&lt;li style=&quot;line-height: 1.1&quot;&gt;facet_wrap()&lt;font face=&quot;Helvetica&quot;&gt;&lt;span style=&quot;white-space: normal&quot;&gt;&amp;nbsp;## Stratify the plot&lt;/span&gt;&lt;/font&gt;&lt;/li&gt;&lt;/ul&gt;&lt;/pre&gt;&lt;/blockquote&gt;" style="shape=step;perimeter=stepPerimeter;whiteSpace=wrap;html=1;fixedSize=1;align=left;fillColor=#0f7175;fontColor=#ffffff;strokeColor=#005700;" parent="WIyWlLk6GJQsqaUBKTNV-1" vertex="1">
                    <mxGeometry x="80" y="760" width="480" height="160" as="geometry"/>
                </mxCell>
                <mxCell id="5-JzVDqVPUkqkS9P1yuQ-11" value="&lt;font size=&quot;1&quot;&gt;&lt;b style=&quot;font-size: 100px&quot;&gt;+&lt;/b&gt;&lt;/font&gt;" style="text;html=1;strokeColor=none;fillColor=none;align=center;verticalAlign=middle;whiteSpace=wrap;rounded=0;fontSize=16;" parent="WIyWlLk6GJQsqaUBKTNV-1" vertex="1">
                    <mxGeometry x="630" y="825" width="60" height="30" as="geometry"/>
                </mxCell>
                <mxCell id="5-JzVDqVPUkqkS9P1yuQ-12" value="&lt;font color=&quot;#ffffff&quot;&gt;Wrap It! (Optional)&lt;/font&gt;" style="text;html=1;strokeColor=none;fillColor=none;align=center;verticalAlign=middle;whiteSpace=wrap;rounded=0;fontSize=20;fontStyle=1" parent="WIyWlLk6GJQsqaUBKTNV-1" vertex="1">
                    <mxGeometry x="180" y="770" width="280" height="30" as="geometry"/>
                </mxCell>
                <mxCell id="5-JzVDqVPUkqkS9P1yuQ-14" value="&lt;blockquote style=&quot;margin: 0px 0px 0px 40px ; border: none ; padding: 0px ; font-size: 16px ; line-height: 0.5&quot;&gt;&lt;pre&gt;&lt;ul style=&quot;line-height: 1.2&quot;&gt;&lt;li style=&quot;line-height: 1.1&quot;&gt;labs(title = ___, x = ___, y = ___)&lt;/li&gt;&lt;li style=&quot;line-height: 1.1&quot;&gt;xlim(__,__), ylim(__,__)&lt;/li&gt;&lt;/ul&gt;&lt;/pre&gt;&lt;/blockquote&gt;" style="shape=step;perimeter=stepPerimeter;whiteSpace=wrap;html=1;fixedSize=1;align=left;fillColor=#0f7175;fontColor=#ffffff;strokeColor=#005700;" parent="WIyWlLk6GJQsqaUBKTNV-1" vertex="1">
                    <mxGeometry x="80" y="560" width="480" height="160" as="geometry"/>
                </mxCell>
                <mxCell id="5-JzVDqVPUkqkS9P1yuQ-15" value="&lt;font size=&quot;1&quot;&gt;&lt;b style=&quot;font-size: 100px&quot;&gt;+&lt;/b&gt;&lt;/font&gt;" style="text;html=1;strokeColor=none;fillColor=none;align=center;verticalAlign=middle;whiteSpace=wrap;rounded=0;fontSize=16;" parent="WIyWlLk6GJQsqaUBKTNV-1" vertex="1">
                    <mxGeometry x="630" y="625" width="60" height="30" as="geometry"/>
                </mxCell>
                <mxCell id="5-JzVDqVPUkqkS9P1yuQ-16" value="&lt;font color=&quot;#ffffff&quot;&gt;Tweak the plot (Optional)&lt;/font&gt;" style="text;html=1;strokeColor=none;fillColor=none;align=center;verticalAlign=middle;whiteSpace=wrap;rounded=0;fontSize=20;fontStyle=1" parent="WIyWlLk6GJQsqaUBKTNV-1" vertex="1">
                    <mxGeometry x="180" y="570" width="280" height="30" as="geometry"/>
                </mxCell>
                <mxCell id="5-JzVDqVPUkqkS9P1yuQ-17" value="ggplot" style="shape=callout;whiteSpace=wrap;html=1;perimeter=calloutPerimeter;fontSize=100;strokeColor=#bf5cca;strokeWidth=5;" parent="WIyWlLk6GJQsqaUBKTNV-1" vertex="1">
                    <mxGeometry x="480" y="20" width="320" height="120" as="geometry"/>
                </mxCell>
            </root>
        </mxGraphModel>
    </diagram>
</mxfile>